# Exported from Wings 3D 2.2.5
o Cube
#16 vertices, 28 faces
v -0.40000000 2.8260000e-3 0.40000000
v -0.40000000 2.8260000e-3 -0.40000000
v 0.40000000 2.8260000e-3 0.40000000
v 0.40000000 2.8260000e-3 -0.40000000
v -0.40000000 0.81000000 0.40000000
v -0.40000000 0.81000000 -0.40000000
v 0.40000000 0.81000000 -0.40000000
v 0.40000000 0.81000000 0.40000000
v -0.54450000 0.89555000 0.54450000
v -0.54450000 1.00445000 0.54450000
v -0.54450000 1.00445000 -0.54450000
v 0.54450000 1.00445000 -0.54450000
v 0.54450000 1.00445000 0.54450000
v -0.54450000 0.89555000 -0.54450000
v 0.54450000 0.89555000 -0.54450000
v 0.54450000 0.89555000 0.54450000
vt 0.0000000e+0 0.0000000e+0
vt 0.0000000e+0 0.43256200
vt 0.0000000e+0 0.86512300
vt 5.7397000e-2 5.7397000e-2
vt 5.7397000e-2 0.37516500
vt 0.37516500 5.7397000e-2
vt 0.37516500 0.37516500
vt 0.43256200 0.0000000e+0
vt 0.43256200 0.31776800
vt 0.43256200 0.43256200
vt 0.43256200 0.63553600
vt 0.43256200 0.86512300
vt 0.59287000 0.31776800
vt 0.59287000 0.63553600
vt 0.75032900 0.0000000e+0
vt 0.75032900 0.31776800
vt 0.75033000 0.0000000e+0
vt 0.75317900 0.31776800
vt 0.75317900 0.63553600
vt 0.91063800 0.0000000e+0
vt 0.91063800 0.31776800
vt 0.91348800 0.31776800
vt 0.91348800 0.63553600
vt 0.91348800 0.75033000
vt 0.93511600 0.31776800
vt 0.93511600 0.75033000
vt 0.95674400 0.31776800
vt 0.95674400 0.75033000
vt 0.97837200 0.31776800
vt 0.97837200 0.75033000
vt 1.00000000 0.31776800
vt 1.00000000 0.75033000
vn 0.0000000e+0 -1.00000000 0.0000000e+0
vn 0.0000000e+0 0.0000000e+0 1.00000000
vn -1.00000000 0.0000000e+0 0.0000000e+0
vn -1.00000000 0.0000000e+0 0.0000000e+0
vn 0.0000000e+0 -1.00000000 0.0000000e+0
vn 0.0000000e+0 0.0000000e+0 1.00000000
vn -1.00000000 0.0000000e+0 0.0000000e+0
vn 0.0000000e+0 -1.00000000 0.0000000e+0
vn 0.0000000e+0 0.0000000e+0 -1.00000000
vn 0.0000000e+0 -1.00000000 0.0000000e+0
vn 1.00000000 0.0000000e+0 0.0000000e+0
vn 0.0000000e+0 0.0000000e+0 1.00000000
vn 0.0000000e+0 -1.00000000 0.0000000e+0
vn 1.00000000 0.0000000e+0 0.0000000e+0
vn 0.0000000e+0 0.0000000e+0 -1.00000000
vn 0.0000000e+0 -1.00000000 0.0000000e+0
vn 0.0000000e+0 0.0000000e+0 -1.00000000
vn 1.00000000 0.0000000e+0 0.0000000e+0
vn 0.0000000e+0 0.0000000e+0 1.00000000
vn -1.00000000 0.0000000e+0 0.0000000e+0
vn -0.50945140 -0.86049943 0.0000000e+0
vn 0.0000000e+0 -0.86049943 0.50945140
vn -0.50945140 -0.86049943 0.0000000e+0
vn 0.0000000e+0 0.0000000e+0 -1.00000000
vn -1.00000000 0.0000000e+0 0.0000000e+0
vn 0.0000000e+0 -0.86049943 -0.50945140
vn -0.50945140 -0.86049943 0.0000000e+0
vn -1.00000000 0.0000000e+0 0.0000000e+0
vn 0.0000000e+0 0.0000000e+0 -1.00000000
vn 0.0000000e+0 -0.86049943 -0.50945140
vn 1.00000000 0.0000000e+0 0.0000000e+0
vn 0.0000000e+0 0.0000000e+0 -1.00000000
vn 0.50945140 -0.86049943 0.0000000e+0
vn 0.0000000e+0 -0.86049943 -0.50945140
vn 0.50945140 -0.86049943 0.0000000e+0
vn 0.0000000e+0 0.0000000e+0 1.00000000
vn 1.00000000 0.0000000e+0 0.0000000e+0
vn 0.0000000e+0 -0.86049943 0.50945140
vn 0.50945140 -0.86049943 0.0000000e+0
vn 0.0000000e+0 -0.86049943 0.50945140
vn 1.00000000 0.0000000e+0 0.0000000e+0
vn 0.0000000e+0 0.0000000e+0 1.00000000
vn -0.50945140 -0.86049943 0.0000000e+0
vn -1.00000000 0.0000000e+0 0.0000000e+0
vn 0.0000000e+0 0.0000000e+0 1.00000000
vn 0.0000000e+0 -0.86049943 0.50945140
vn 0.0000000e+0 0.0000000e+0 1.00000000
vn -1.00000000 0.0000000e+0 0.0000000e+0
vn -0.50945140 -0.86049943 0.0000000e+0
vn 0.0000000e+0 -0.86049943 0.50945140
vn 0.0000000e+0 1.00000000 0.0000000e+0
vn 0.0000000e+0 0.0000000e+0 1.00000000
vn -1.00000000 0.0000000e+0 0.0000000e+0
vn 0.0000000e+0 1.00000000 0.0000000e+0
vn -1.00000000 0.0000000e+0 0.0000000e+0
vn 0.0000000e+0 0.0000000e+0 -1.00000000
vn -1.00000000 0.0000000e+0 0.0000000e+0
vn 0.0000000e+0 1.00000000 0.0000000e+0
vn 0.0000000e+0 0.0000000e+0 -1.00000000
vn 1.00000000 0.0000000e+0 0.0000000e+0
vn 0.0000000e+0 1.00000000 0.0000000e+0
vn 0.0000000e+0 0.0000000e+0 -1.00000000
vn 0.0000000e+0 1.00000000 0.0000000e+0
vn 1.00000000 0.0000000e+0 0.0000000e+0
vn 0.0000000e+0 0.0000000e+0 1.00000000
vn 1.00000000 0.0000000e+0 0.0000000e+0
vn 0.0000000e+0 0.0000000e+0 1.00000000
vn 0.0000000e+0 1.00000000 0.0000000e+0
vn -0.50945140 -0.86049943 0.0000000e+0
vn -1.00000000 0.0000000e+0 0.0000000e+0
vn 0.0000000e+0 0.0000000e+0 -1.00000000
vn 0.0000000e+0 -0.86049943 -0.50945140
vn 0.50945140 -0.86049943 0.0000000e+0
vn 0.0000000e+0 0.0000000e+0 -1.00000000
vn 1.00000000 0.0000000e+0 0.0000000e+0
vn 0.0000000e+0 -0.86049943 -0.50945140
vn 0.50945140 -0.86049943 0.0000000e+0
vn 1.00000000 0.0000000e+0 0.0000000e+0
vn 0.0000000e+0 0.0000000e+0 -1.00000000
vn 0.0000000e+0 -0.86049943 -0.50945140
vn 0.50945140 -0.86049943 0.0000000e+0
vn 1.00000000 0.0000000e+0 0.0000000e+0
vn 0.0000000e+0 0.0000000e+0 1.00000000
vn 0.0000000e+0 -0.86049943 0.50945140
g Table
s 1
f 1/13/2 8/11/36 5/9/19
f 2/21/9 6/16/29 4/20/17
f 3/14/12 8/11/42 1/13/6
f 4/20/15 6/16/24 7/15/32
f 5/5/21 9/2/49 6/4/27
f 6/4/23 9/2/43 14/1/69
f 7/6/33 15/8/77 8/7/39
f 8/7/35 15/8/73 16/10/81
f 10/12/51 13/3/63 11/10/54
f 11/10/58 13/3/68 12/2/61
s 2
f 1/23/4 6/18/28 2/22/7
f 4/19/18 8/13/41 3/18/11
f 5/19/20 6/18/25 1/23/3
f 7/14/31 8/13/37 4/19/14
f 9/29/47 13/28/67 10/27/52
f 11/24/56 15/25/74 14/26/71
f 12/22/62 15/25/79 11/24/59
f 16/30/83 13/28/65 9/29/45
s 3
f 1/9/1 4/17/13 3/16/10
f 2/8/8 4/17/16 1/9/5
f 6/4/30 15/8/80 7/6/34
f 8/7/40 9/2/50 5/5/22
f 9/32/44 11/29/55 14/31/70
f 10/30/53 11/29/57 9/32/48
f 13/25/66 15/28/78 12/26/60
f 14/1/72 15/8/76 6/4/26
f 16/10/84 9/2/46 8/7/38
f 16/27/82 15/28/75 13/25/64
